<mxfile host="app.diagrams.net" agent="Mozilla/5.0 (Windows NT 10.0; Win64; x64; rv:131.0) Gecko/20100101 Firefox/131.0" scale="1" border="0" version="24.8.3">
  <diagram name="Page-1" id="0783ab3e-0a74-02c8-0abd-f7b4e66b4bec">
    <mxGraphModel dx="1050" dy="615" grid="1" gridSize="10" guides="1" tooltips="1" connect="1" arrows="1" fold="1" page="1" pageScale="1" pageWidth="850" pageHeight="1100" background="none" math="0" shadow="0">
      <root>
        <mxCell id="0" />
        <mxCell id="1" parent="0" />
        <mxCell id="1c1d494c118603dd-1" value="Benutzer erstellen" style="swimlane;html=1;childLayout=stackLayout;startSize=20;rounded=0;shadow=0;comic=0;labelBackgroundColor=none;strokeWidth=1;fontFamily=Verdana;fontSize=12;align=center;" parent="1" vertex="1">
          <mxGeometry x="40" y="20" width="775" height="900" as="geometry" />
        </mxCell>
        <mxCell id="1c1d494c118603dd-2" value="Benutzer" style="swimlane;html=1;startSize=20;" parent="1c1d494c118603dd-1" vertex="1">
          <mxGeometry y="20" width="250" height="880" as="geometry" />
        </mxCell>
        <mxCell id="60571a20871a0731-4" value="" style="ellipse;whiteSpace=wrap;html=1;rounded=0;shadow=0;comic=0;labelBackgroundColor=none;strokeWidth=1;fillColor=#000000;fontFamily=Verdana;fontSize=12;align=center;" parent="1c1d494c118603dd-2" vertex="1">
          <mxGeometry x="100" y="40" width="40" height="40" as="geometry" />
        </mxCell>
        <mxCell id="60571a20871a0731-8" value="Navigiert zu Registrierungsseite" style="rounded=1;whiteSpace=wrap;html=1;shadow=0;comic=0;labelBackgroundColor=none;strokeWidth=1;fontFamily=Verdana;fontSize=12;align=center;arcSize=50;" parent="1c1d494c118603dd-2" vertex="1">
          <mxGeometry x="55" y="110" width="130" height="60" as="geometry" />
        </mxCell>
        <mxCell id="1c1d494c118603dd-27" style="edgeStyle=orthogonalEdgeStyle;rounded=0;html=1;labelBackgroundColor=none;startArrow=none;startFill=0;startSize=5;endArrow=classicThin;endFill=1;endSize=5;jettySize=auto;orthogonalLoop=1;strokeWidth=1;fontFamily=Verdana;fontSize=12" parent="1c1d494c118603dd-2" source="60571a20871a0731-4" target="60571a20871a0731-8" edge="1">
          <mxGeometry relative="1" as="geometry" />
        </mxCell>
        <mxCell id="aAqfZQe3h_Pv-nsiE1Jg-17" value="wählt &quot;neue Auktion&quot;" style="rounded=1;whiteSpace=wrap;html=1;shadow=0;comic=0;labelBackgroundColor=none;strokeWidth=1;fontFamily=Verdana;fontSize=12;align=center;arcSize=50;" parent="1c1d494c118603dd-2" vertex="1">
          <mxGeometry x="62.5" y="200" width="115" height="40" as="geometry" />
        </mxCell>
        <mxCell id="aAqfZQe3h_Pv-nsiE1Jg-18" style="edgeStyle=orthogonalEdgeStyle;rounded=0;html=1;labelBackgroundColor=none;startArrow=none;startFill=0;startSize=5;endArrow=classicThin;endFill=1;endSize=5;jettySize=auto;orthogonalLoop=1;strokeWidth=1;fontFamily=Verdana;fontSize=12;exitX=0.5;exitY=1;exitDx=0;exitDy=0;" parent="1c1d494c118603dd-2" source="60571a20871a0731-8" target="aAqfZQe3h_Pv-nsiE1Jg-17" edge="1">
          <mxGeometry relative="1" as="geometry">
            <mxPoint x="120" y="170" as="sourcePoint" />
          </mxGeometry>
        </mxCell>
        <mxCell id="aAqfZQe3h_Pv-nsiE1Jg-22" value="füllt&amp;nbsp;Auktionssformular aus" style="rounded=1;whiteSpace=wrap;html=1;shadow=0;comic=0;labelBackgroundColor=none;strokeWidth=1;fontFamily=Verdana;fontSize=12;align=center;arcSize=50;" parent="1c1d494c118603dd-2" vertex="1">
          <mxGeometry x="45" y="300" width="150" height="55" as="geometry" />
        </mxCell>
        <mxCell id="1c1d494c118603dd-3" value="Online-Shop&amp;nbsp;" style="swimlane;html=1;startSize=20;" parent="1c1d494c118603dd-1" vertex="1">
          <mxGeometry x="250" y="20" width="275" height="880" as="geometry" />
        </mxCell>
        <mxCell id="1c1d494c118603dd-7" value="zeigt Auktionssformular an" style="rounded=1;whiteSpace=wrap;html=1;shadow=0;comic=0;labelBackgroundColor=none;strokeWidth=1;fontFamily=Verdana;fontSize=12;align=center;arcSize=50;" parent="1c1d494c118603dd-3" vertex="1">
          <mxGeometry x="50" y="192.5" width="150" height="55" as="geometry" />
        </mxCell>
        <mxCell id="aAqfZQe3h_Pv-nsiE1Jg-28" style="edgeStyle=orthogonalEdgeStyle;rounded=0;orthogonalLoop=1;jettySize=auto;html=1;entryX=0.5;entryY=0;entryDx=0;entryDy=0;" parent="1c1d494c118603dd-3" source="aAqfZQe3h_Pv-nsiE1Jg-24" target="aAqfZQe3h_Pv-nsiE1Jg-27" edge="1">
          <mxGeometry relative="1" as="geometry" />
        </mxCell>
        <mxCell id="aAqfZQe3h_Pv-nsiE1Jg-24" value="erhält Auktionssformular" style="rounded=1;whiteSpace=wrap;html=1;shadow=0;comic=0;labelBackgroundColor=none;strokeWidth=1;fontFamily=Verdana;fontSize=12;align=center;arcSize=50;" parent="1c1d494c118603dd-3" vertex="1">
          <mxGeometry x="50" y="380" width="150" height="55.5" as="geometry" />
        </mxCell>
        <mxCell id="aAqfZQe3h_Pv-nsiE1Jg-35" style="edgeStyle=orthogonalEdgeStyle;rounded=0;orthogonalLoop=1;jettySize=auto;html=1;entryX=0.5;entryY=0;entryDx=0;entryDy=0;" parent="1c1d494c118603dd-3" source="aAqfZQe3h_Pv-nsiE1Jg-27" target="aAqfZQe3h_Pv-nsiE1Jg-34" edge="1">
          <mxGeometry relative="1" as="geometry" />
        </mxCell>
        <mxCell id="aAqfZQe3h_Pv-nsiE1Jg-27" value="" style="rhombus;whiteSpace=wrap;html=1;" parent="1c1d494c118603dd-3" vertex="1">
          <mxGeometry x="105" y="465" width="40" height="40" as="geometry" />
        </mxCell>
        <mxCell id="aAqfZQe3h_Pv-nsiE1Jg-30" value="[nicht alle&amp;nbsp;&lt;div&gt;Felder&amp;nbsp;&lt;div&gt;korrekt&lt;/div&gt;&lt;div&gt;&amp;nbsp;ausgefüllt]&lt;/div&gt;&lt;/div&gt;" style="text;html=1;align=center;verticalAlign=middle;resizable=0;points=[];autosize=1;strokeColor=none;fillColor=none;rotation=0;rounded=0;" parent="1c1d494c118603dd-3" vertex="1">
          <mxGeometry x="50" y="510" width="80" height="70" as="geometry" />
        </mxCell>
        <mxCell id="aAqfZQe3h_Pv-nsiE1Jg-31" value="[alle Felder&amp;nbsp;&lt;div&gt;&lt;div&gt;korrekt ausgefüllt]&lt;/div&gt;&lt;/div&gt;" style="text;html=1;align=center;verticalAlign=middle;resizable=0;points=[];autosize=1;strokeColor=none;fillColor=none;rotation=0;rounded=0;" parent="1c1d494c118603dd-3" vertex="1">
          <mxGeometry x="160" y="450" width="120" height="40" as="geometry" />
        </mxCell>
        <mxCell id="aAqfZQe3h_Pv-nsiE1Jg-34" value="Zeigt: Nicht alle Felder korrekt ausgefüllt" style="rounded=1;whiteSpace=wrap;html=1;shadow=0;comic=0;labelBackgroundColor=none;strokeWidth=1;fontFamily=Verdana;fontSize=12;align=center;arcSize=50;" parent="1c1d494c118603dd-3" vertex="1">
          <mxGeometry x="50" y="600" width="150" height="55" as="geometry" />
        </mxCell>
        <mxCell id="aAqfZQe3h_Pv-nsiE1Jg-49" style="edgeStyle=orthogonalEdgeStyle;rounded=0;orthogonalLoop=1;jettySize=auto;html=1;entryX=0.5;entryY=0;entryDx=0;entryDy=0;" parent="1c1d494c118603dd-3" source="aAqfZQe3h_Pv-nsiE1Jg-47" target="60571a20871a0731-5" edge="1">
          <mxGeometry relative="1" as="geometry" />
        </mxCell>
        <mxCell id="aAqfZQe3h_Pv-nsiE1Jg-47" value="Zeigt: Auktion erfolgreich erstellt" style="rounded=1;whiteSpace=wrap;html=1;shadow=0;comic=0;labelBackgroundColor=none;strokeWidth=1;fontFamily=Verdana;fontSize=12;align=center;arcSize=50;" parent="1c1d494c118603dd-3" vertex="1">
          <mxGeometry x="50" y="716" width="150" height="55" as="geometry" />
        </mxCell>
        <mxCell id="60571a20871a0731-5" value="" style="shape=mxgraph.bpmn.shape;html=1;verticalLabelPosition=bottom;labelBackgroundColor=#ffffff;verticalAlign=top;perimeter=ellipsePerimeter;outline=end;symbol=terminate;rounded=0;shadow=0;comic=0;strokeWidth=1;fontFamily=Verdana;fontSize=12;align=center;" parent="1c1d494c118603dd-3" vertex="1">
          <mxGeometry x="105" y="807" width="40" height="40" as="geometry" />
        </mxCell>
        <mxCell id="1c1d494c118603dd-4" value="Datenbank" style="swimlane;html=1;startSize=20;" parent="1c1d494c118603dd-1" vertex="1">
          <mxGeometry x="525" y="20" width="250" height="880" as="geometry" />
        </mxCell>
        <mxCell id="aAqfZQe3h_Pv-nsiE1Jg-32" value="erhält Auktionssformular" style="rounded=1;whiteSpace=wrap;html=1;shadow=0;comic=0;labelBackgroundColor=none;strokeWidth=1;fontFamily=Verdana;fontSize=12;align=center;arcSize=50;" parent="1c1d494c118603dd-4" vertex="1">
          <mxGeometry x="50" y="457.25" width="150" height="55.5" as="geometry" />
        </mxCell>
        <mxCell id="aAqfZQe3h_Pv-nsiE1Jg-40" style="edgeStyle=orthogonalEdgeStyle;rounded=0;orthogonalLoop=1;jettySize=auto;html=1;entryX=0.5;entryY=0;entryDx=0;entryDy=0;exitX=0.5;exitY=1;exitDx=0;exitDy=0;" parent="1c1d494c118603dd-4" source="aAqfZQe3h_Pv-nsiE1Jg-32" target="aAqfZQe3h_Pv-nsiE1Jg-41" edge="1">
          <mxGeometry relative="1" as="geometry">
            <mxPoint x="125" y="660" as="targetPoint" />
            <mxPoint x="125" y="580" as="sourcePoint" />
          </mxGeometry>
        </mxCell>
        <mxCell id="aAqfZQe3h_Pv-nsiE1Jg-41" value="speichert Daten aus Formular" style="rounded=1;whiteSpace=wrap;html=1;shadow=0;comic=0;labelBackgroundColor=none;strokeWidth=1;fontFamily=Verdana;fontSize=12;align=center;arcSize=50;" parent="1c1d494c118603dd-4" vertex="1">
          <mxGeometry x="65" y="660" width="120" height="45.5" as="geometry" />
        </mxCell>
        <mxCell id="aAqfZQe3h_Pv-nsiE1Jg-21" style="edgeStyle=orthogonalEdgeStyle;rounded=0;orthogonalLoop=1;jettySize=auto;html=1;entryX=0;entryY=0.5;entryDx=0;entryDy=0;" parent="1c1d494c118603dd-1" source="aAqfZQe3h_Pv-nsiE1Jg-17" target="1c1d494c118603dd-7" edge="1">
          <mxGeometry relative="1" as="geometry" />
        </mxCell>
        <mxCell id="aAqfZQe3h_Pv-nsiE1Jg-23" style="edgeStyle=orthogonalEdgeStyle;rounded=0;orthogonalLoop=1;jettySize=auto;html=1;entryX=1;entryY=0.5;entryDx=0;entryDy=0;" parent="1c1d494c118603dd-1" source="1c1d494c118603dd-7" target="aAqfZQe3h_Pv-nsiE1Jg-22" edge="1">
          <mxGeometry relative="1" as="geometry">
            <Array as="points">
              <mxPoint x="375" y="348" />
            </Array>
          </mxGeometry>
        </mxCell>
        <mxCell id="aAqfZQe3h_Pv-nsiE1Jg-25" style="edgeStyle=orthogonalEdgeStyle;rounded=0;orthogonalLoop=1;jettySize=auto;html=1;entryX=0;entryY=0.5;entryDx=0;entryDy=0;" parent="1c1d494c118603dd-1" source="aAqfZQe3h_Pv-nsiE1Jg-22" target="aAqfZQe3h_Pv-nsiE1Jg-24" edge="1">
          <mxGeometry relative="1" as="geometry">
            <Array as="points">
              <mxPoint x="120" y="428" />
            </Array>
          </mxGeometry>
        </mxCell>
        <mxCell id="aAqfZQe3h_Pv-nsiE1Jg-33" style="edgeStyle=orthogonalEdgeStyle;rounded=0;orthogonalLoop=1;jettySize=auto;html=1;entryX=0;entryY=0.5;entryDx=0;entryDy=0;exitX=1;exitY=0.5;exitDx=0;exitDy=0;" parent="1c1d494c118603dd-1" source="aAqfZQe3h_Pv-nsiE1Jg-27" target="aAqfZQe3h_Pv-nsiE1Jg-32" edge="1">
          <mxGeometry relative="1" as="geometry">
            <Array as="points">
              <mxPoint x="570" y="505" />
              <mxPoint x="570" y="505" />
            </Array>
          </mxGeometry>
        </mxCell>
        <mxCell id="aAqfZQe3h_Pv-nsiE1Jg-36" style="edgeStyle=orthogonalEdgeStyle;rounded=0;orthogonalLoop=1;jettySize=auto;html=1;entryX=0;entryY=0.5;entryDx=0;entryDy=0;" parent="1c1d494c118603dd-1" source="aAqfZQe3h_Pv-nsiE1Jg-34" target="aAqfZQe3h_Pv-nsiE1Jg-22" edge="1">
          <mxGeometry relative="1" as="geometry" />
        </mxCell>
        <mxCell id="aAqfZQe3h_Pv-nsiE1Jg-48" style="edgeStyle=orthogonalEdgeStyle;rounded=0;orthogonalLoop=1;jettySize=auto;html=1;entryX=1;entryY=0.5;entryDx=0;entryDy=0;" parent="1c1d494c118603dd-1" source="aAqfZQe3h_Pv-nsiE1Jg-41" target="aAqfZQe3h_Pv-nsiE1Jg-47" edge="1">
          <mxGeometry relative="1" as="geometry">
            <Array as="points">
              <mxPoint x="650" y="764" />
            </Array>
          </mxGeometry>
        </mxCell>
      </root>
    </mxGraphModel>
  </diagram>
</mxfile>
